HIERARCHY
ROOT Hips
{
  OFFSET 90.7885 88.945 -76.2838
  CHANNELS 6 Xposition Yposition Zposition Zrotation Xrotation Yrotation
  JOINT LeftUpLeg
  {
    OFFSET 8.64259 1.95398 -2.38835
    CHANNELS 3 Zrotation Xrotation Yrotation
    JOINT LeftLeg
    {
      OFFSET 43.7702 0 0
      CHANNELS 3 Zrotation Xrotation Yrotation
      JOINT LeftFoot
      {
        OFFSET 40.6238 0 0
        CHANNELS 3 Zrotation Xrotation Yrotation
        JOINT LeftToeBase
        {
          OFFSET 12.7242 0 0
          CHANNELS 3 Zrotation Xrotation Yrotation
          End Site
          {
            OFFSET 0 0 0
          }
        }
      }
    }
  }
  JOINT RightUpLeg
  {
    OFFSET -8.2249 1.95398 -2.59336
    CHANNELS 3 Zrotation Xrotation Yrotation
    JOINT RightLeg
    {
      OFFSET 43.5653 0 0
      CHANNELS 3 Zrotation Xrotation Yrotation
      JOINT RightFoot
      {
        OFFSET 40.6238 0 0
        CHANNELS 3 Zrotation Xrotation Yrotation
        JOINT RightToeBase
        {
          OFFSET 12.7242 0 0
          CHANNELS 3 Zrotation Xrotation Yrotation
          End Site
          {
            OFFSET 0 0 0
          }
        }
      }
    }
  }
  JOINT Spine
  {
    OFFSET 0.165834 0.87714 6.61349
    CHANNELS 3 Zrotation Xrotation Yrotation
    JOINT Spine1
    {
      OFFSET 7.38963 1.71661e-005 0
      CHANNELS 3 Zrotation Xrotation Yrotation
      JOINT Spine2
      {
        OFFSET 11.9445 1.14441e-005 0
        CHANNELS 3 Zrotation Xrotation Yrotation
        JOINT Spine3
        {
          OFFSET 14.7254 4.19617e-005 0
          CHANNELS 3 Zrotation Xrotation Yrotation
          JOINT Spine4
          {
            OFFSET 10.9679 0 0
            CHANNELS 3 Zrotation Xrotation Yrotation
            JOINT RightShoulder
            {
              OFFSET 2.46616 -1.6653 3.69651
              CHANNELS 3 Zrotation Xrotation Yrotation
              JOINT RightArm
              {
                OFFSET 13.0012 0 0
                CHANNELS 3 Zrotation Xrotation Yrotation
                JOINT RightForeArm
                {
                  OFFSET 28.7848 1.52588e-005 0
                  CHANNELS 3 Zrotation Xrotation Yrotation
                  JOINT RightHand
                  {
                    OFFSET 26.5688 1.52588e-005 0
                    CHANNELS 3 Zrotation Xrotation Yrotation
                    End Site
                    {
                      OFFSET 0 0 0
                    }
                  }
                }
              }
            }
            JOINT LeftShoulder
            {
              OFFSET 2.38034 -1.29275 -3.7523
              CHANNELS 3 Zrotation Xrotation Yrotation
              JOINT LeftArm
              {
                OFFSET 16.3182 6.10352e-005 0
                CHANNELS 3 Zrotation Xrotation Yrotation
                JOINT LeftForeArm
                {
                  OFFSET 27.0901 0 0
                  CHANNELS 3 Zrotation Xrotation Yrotation
                  JOINT LeftHand
                  {
                    OFFSET 24.5451 1.52588e-005 0
                    CHANNELS 3 Zrotation Xrotation Yrotation
                    End Site
                    {
                      OFFSET 0 0 0
                    }
                  }
                }
              }
            }
            JOINT Neck
            {
              OFFSET 5.0226 -0.0266342 0
              CHANNELS 3 Zrotation Xrotation Yrotation
              JOINT Head
              {
                OFFSET 6.69363 2.86102e-005 0
                CHANNELS 3 Zrotation Xrotation Yrotation
                End Site
                {
                  OFFSET 0 0 0
                }
              }
            }
          }
        }
      }
    }
  }
}
MOTION
Frames:	10
Frame Time:	0.0416667
40.5428 100.791 -286.152 -173.938 -83.7637 -176.962 -176.444 -6.86847 92.0522 -6.5344 3.35932 0.330824 67.9548 4.0135 -6.74833 22.7396 -8.66551 12.5485 168.784 -2.65069 84.6192 -13.5442 -11.3878 -1.30576 69.8819 -4.78062 3.36372 25.8075 2.16467 -4.05943 -0.0286631 7.61579 -90.0569 11.6423 -0.0836155 -0.104628 -0.0287065 -0.0881438 -0.10085 -22.5638 -0.0483139 -0.124917 -2.55119 -0.04831 -0.124925 90.7981 -28.8445 -105.597 42.8117 -11.0588 -3.67253 0.697984 -35.1634 -18.0944 -33.329 -2.75757 -1.68611 -88.3286 -57.2891 82.5023 -23.689 11.8886 -17.7779 5.62711 13.6415 -1.92548 -4.04632 0.00546766 -10.934 2.41757 -1.00951 -5.15787 1.40661 0.250087 13.9547 
39.9359 100.938 -286.007 -153.669 -83.5742 -155.731 -176.437 -5.8292 92.9992 -8.44698 -0.34015 1.00728 69.5711 4.34239 -8.32846 19.2324 -6.55486 9.70416 169.446 -2.22069 85.9201 -14.2345 -12.9044 -1.18712 68.0665 -4.19893 0.67099 26.6401 -0.106739 0.690446 0.148689 7.52278 -90.0304 11.8287 0.281457 -0.0902269 0.15774 0.277215 -0.102533 -22.3776 0.295565 -0.00146258 -2.36501 0.295558 -0.0014747 89.493 -30.487 -107.571 42.3926 -11.7256 -2.8463 3.22368 -31.7721 -18.1202 -32.133 -2.89749 -0.366079 -87.9453 -55.5372 82.7537 -20.8227 16.6226 -14.3425 3.77406 6.24045 -4.92916 -3.24777 -0.0426347 -10.6227 3.96987 -0.221358 1.90229 -6.05055 -0.57937 -0.777919 
38.6878 100.796 -285.462 -148.377 -83.03 -150.809 -175.954 -5.96312 93.233 -9.14197 -0.700163 0.869284 70.0572 5.22921 -7.82967 20.0285 -6.0478 9.04757 169.537 -1.4686 86.0867 -16.8954 -12.8112 -1.21005 71.4851 -5.46543 0.379246 22.4512 -0.790549 2.95898 0.282106 7.57795 -89.9784 11.718 0.571309 -0.0168165 0.0472325 0.57002 -0.0419498 -22.4889 0.549945 0.155672 -2.47625 0.549947 0.155667 89.4063 -30.7325 -107.643 42.5879 -12.8542 -2.42571 3.55504 -25.8976 -17.1116 -23.7926 -0.377239 -9.50965 -88.1547 -55.6124 82.4698 -18.169 19.4306 -12.0674 2.57818 1.73101 -8.37992 -3.17089 -0.0453609 -10.3496 3.15101 -0.200106 1.97753 -5.30291 -0.520314 -0.203317 
36.7617 99.6179 -285.668 -153.394 -83.6066 -155.239 -174.823 1.51065 95.9056 -22.8035 0.942229 0.843007 73.1551 6.64381 -6.95723 26.3464 -7.79511 11.5497 169.647 0.936739 87.3979 -22.2125 -12.7732 0.0713533 74.3633 -6.48635 -0.56803 22.6261 0.284075 0.713816 0.325999 7.67816 -90.0495 11.5177 0.625478 -0.162035 -0.153111 0.61775 -0.18941 -22.6894 0.64526 0.0334543 -2.6768 0.645253 0.0334409 89.5053 -29.588 -107.904 43.2024 -13.1893 -2.11813 3.82662 -26.6913 -17.5508 -24.7152 -0.883635 -7.29105 -87.7871 -55.1378 82.9133 -17.7597 18.0565 -11.7164 3.31951 1.17833 -9.08947 -2.83257 -0.0727955 -8.84487 4.3165 0.00118199 3.33073 -5.32813 -0.560376 -0.947756 
35.164 98.5431 -285.913 -175.155 -83.5197 -175.857 -175.634 11.8034 96.3439 -41.277 4.18311 2.79837 73.2011 6.80956 -4.09131 22.6649 -7.28262 10.6918 169.651 1.5639 89.2169 -26.0834 -10.534 1.33459 76.4716 -6.73127 -0.0969763 22.7429 -0.441371 2.18496 0.349958 7.912 -90.2941 11.0512 0.560326 -0.639112 -0.619803 0.53165 -0.663159 -23.1552 0.726488 -0.441163 -3.1426 0.726488 -0.441174 89.488 -28.6224 -108.331 42.8156 -12.8364 -2.22049 3.78023 -24.2222 -15.5331 -25.1217 -0.70112 -7.54546 -87.8725 -57.2719 83.1317 -15.5502 16.8802 -10.486 4.42378 1.12541 -13.5828 -2.01512 -0.105264 -9.09438 4.68318 -0.33971 5.91672 -4.28443 -1.34323 -2.77926 
34.0627 98.7097 -284.878 168.386 -83.0395 167.175 -177.202 18.535 93.8785 -49.8893 8.08457 3.70908 69.6293 5.58246 0.481174 21.1268 -3.97024 6.33238 169.48 -0.0659842 89.309 -25.1355 -6.78285 1.40694 79.2319 -7.01484 1.68389 19.0939 0.263799 1.42293 0.522812 8.05181 -90.3154 10.7748 0.895565 -0.710158 -0.896035 0.863433 -0.748893 -23.433 1.06759 -0.408159 -3.42036 1.06759 -0.408161 89.1256 -28.8891 -108.951 41.5482 -12.8006 -1.67491 4.56562 -22.7578 -13.9269 -26.4077 -0.557073 -7.79822 -87.7036 -58.0839 83.4879 -15.6739 15.6195 -8.7349 5.72935 2.0581 -16.6153 -1.62402 -0.115713 -8.1578 3.72169 -1.51391 5.31102 -3.11564 -2.37279 -3.32388 
33.699 98.8099 -283.065 168.847 -83.3316 165.511 -177.845 19.9851 89.6847 -42.2441 9.87062 1.71745 69.2369 4.77362 -4.40755 19.2089 -4.62625 7.26623 168.445 -1.479 87.0368 -23.7376 -8.33023 1.24762 78.2995 -6.7299 1.37134 24.2537 -1.29232 3.78788 0.864421 8.08175 -90.0424 10.7123 1.70196 -0.240245 -0.957597 1.68973 -0.31495 -23.5016 1.69546 0.282528 -3.48891 1.69545 0.282512 89.1972 -29.6088 -108.506 41.6241 -12.9085 -2.41012 5.78838 -23.7687 -12.5962 -26.3394 -0.832396 -6.69155 -88.0311 -56.8821 82.8492 -17.2537 14.3824 -6.71127 5.76999 1.66695 -15.0517 -1.98474 -0.104848 -8.40291 3.1382 -2.7421 3.40886 -3.33309 -3.23097 -3.14445 
33.585 98.8784 -280.684 166.395 -83.7678 161.871 -179.13 18.9327 86.1121 -25.6651 9.68539 -0.216835 67.0337 4.14927 -1.43755 16.1872 -0.691753 2.79661 168.303 -3.53834 86.1728 -21.3374 -7.63918 0.62127 78.1757 -6.8525 1.45724 26.4508 -1.80786 4.56093 0.925602 8.13596 -89.981 10.604 1.85228 -0.129361 -1.06566 1.84479 -0.210792 -23.611 1.80549 0.433496 -3.59839 1.80549 0.433489 89.0844 -28.744 -109.091 41.7062 -13.1129 -3.76044 4.5323 -25.9408 -14.5072 -25.9325 -0.854685 -7.20145 -88.0806 -58.4989 83.0368 -16.9867 14.7624 -3.54488 4.80987 -0.0448408 -13.7181 -2.68478 -0.0848925 -7.86671 3.4545 -2.61559 5.65015 -2.38442 -3.51604 -3.92259 
33.5324 98.6178 -277.168 166.242 -83.3567 161.945 179.116 15.5265 84.3625 -8.69726 5.55167 -1.21253 63.2238 3.1758 -1.2519 14.0627 -0.292063 2.57352 168.413 -7.75424 86.3362 -18.5843 -6.899 0.189861 78.4037 -7.19818 1.51653 27.9918 -1.69008 4.09789 0.930171 8.1996 -90.0546 10.4779 1.82783 -0.270625 -1.19183 1.81415 -0.350838 -23.7372 1.82463 0.291415 -3.72454 1.82463 0.291419 88.9464 -28.9243 -109.291 40.6758 -13.1193 -5.13039 2.67829 -26.2207 -17.5227 -26.0027 -0.658824 -8.32135 -88.2696 -59.5988 82.951 -17.9418 16.0269 -0.631602 3.55206 -1.53694 -11.1328 -1.26806 -0.103841 -5.75131 2.89933 -2.32423 6.27903 -1.67524 -3.32968 -3.61894 
33.4683 97.5576 -272.66 -176.198 -84.5238 179.603 179.116 17.972 83.4753 -8.24556 1.8734 -2.57207 63.8468 3.20604 -1.34308 13.9442 0.436824 1.76755 168.029 -8.99775 85.4241 -20.0198 -7.54783 -0.176968 83.6144 -9.14315 3.27278 25.396 -1.44376 3.90257 1.09639 8.09174 -90.0645 10.6946 2.15378 -0.324917 -0.974614 2.13739 -0.419442 -23.5239 2.15181 0.337718 -3.51125 2.15181 0.337714 88.8128 -28.9215 -109.559 39.9743 -13.2738 -6.87378 3.35448 -26.2699 -16.3714 -26.4558 -0.518351 -9.00966 -88.1223 -60.9873 83.3615 -19.3684 15.4145 2.30311 3.88543 -0.449415 -11.021 -4.09761 -0.059981 -6.48009 2.67518 -1.89222 6.49321 -1.82726 -2.9244 -4.17283 
